<svg width="89" height="58" viewBox="0 0 89 58" fill="none" xmlns="http://www.w3.org/2000/svg">
<path d="M82.3543 19.8737L44.2446 50.9327L6.13482 19.8737C5.45392 19.3177 4.53988 19.0064 3.58807 19.0064C2.63626 19.0064 1.72221 19.3177 1.04132 19.8737C0.711631 20.1438 0.449712 20.4661 0.270906 20.8219C0.0920998 21.1777 0 21.5597 0 21.9456C0 22.3315 0.0920998 22.7135 0.270906 23.0693C0.449712 23.425 0.711631 23.7474 1.04132 24.0175L41.5834 57.0655C42.2954 57.6457 43.2503 57.9704 44.2446 57.9704C45.2388 57.9704 46.1937 57.6457 46.9057 57.0655L87.4478 24.0238C87.7798 23.7536 88.0437 23.4304 88.2239 23.0735C88.4041 22.7165 88.4969 22.333 88.4969 21.9456C88.4969 21.5582 88.4041 21.1746 88.2239 20.8177C88.0437 20.4608 87.7798 20.1376 87.4478 19.8673C86.7669 19.3113 85.8529 19 84.9011 19C83.9493 19 83.0352 19.3113 82.3543 19.8673V19.8737Z" fill="#FF6B00"/>
<path d="M79.3777 0.829537L44.4964 30.3181L9.61511 0.829537C8.9919 0.301608 8.15528 0.00605223 7.28411 0.00605223C6.41293 0.00605223 5.57632 0.301608 4.9531 0.829537C4.65135 1.08595 4.41162 1.39201 4.24796 1.72979C4.0843 2.06756 4 2.43027 4 2.79665C4 3.16304 4.0843 3.52574 4.24796 3.86352C4.41162 4.20129 4.65135 4.50735 4.9531 4.76377L42.0607 36.1408C42.7124 36.6917 43.5864 37 44.4964 37C45.4064 37 46.2805 36.6917 46.9321 36.1408L84.0398 4.76983C84.3437 4.51322 84.5852 4.20641 84.7501 3.86751C84.915 3.52861 85 3.1645 85 2.79665C85 2.42881 84.915 2.06469 84.7501 1.7258C84.5852 1.3869 84.3437 1.08009 84.0398 0.823482C83.4165 0.295553 82.5799 0 81.7087 0C80.8376 0 80.001 0.295553 79.3777 0.823482V0.829537Z" fill="#FF6B00"/>
</svg>
